PS_ngait_og_ss1_kinetics.mot
version=1
nRows=10
nColumns=28
inDegrees=yes
endheader
time	1_ground_force_vx	1_ground_force_vy	1_ground_force_vz	1_ground_force_px	1_ground_force_py	1_ground_force_pz	2_ground_force_vx	2_ground_force_vy	2_ground_force_vz	2_ground_force_px	2_ground_force_py	2_ground_force_pz	3_ground_force_vx	3_ground_force_vy	3_ground_force_vz	3_ground_force_px	3_ground_force_py	3_ground_force_pz	1_ground_torque_x	1_ground_torque_y	1_ground_torque_z	2_ground_torque_x	2_ground_torque_y	2_ground_torque_z	3_ground_torque_x	3_ground_torque_y	3_ground_torque_z
  0.55000000	 57.65450905	839.32224478	 54.36496757	  0.46208910	 -0.00600000	  0.08580858	  0.00000000	  0.00000000	  0.00000000	 -0.30000000	 -0.00600000	  0.20000000	  0.00000000	  0.00000000	  0.00000000	  0.90000000	 -0.00600000	  0.20000000	  0.00000000	 -0.48464810	  0.00000000	  0.00000000	  0.00000000	  0.00000000	  0.00000000	  0.00000000	  0.00000000
  0.55083333	 58.14576051	839.04413787	 54.35632190	  0.46240836	 -0.00600000	  0.08580740	  0.00000000	  0.00000000	  0.00000000	 -0.30000000	 -0.00600000	  0.20000000	  0.00000000	  0.00000000	  0.00000000	  0.90000000	 -0.00600000	  0.20000000	  0.00000000	 -0.49887450	  0.00000000	  0.00000000	  0.00000000	  0.00000000	  0.00000000	  0.00000000	  0.00000000
  0.55166667	 58.65048727	838.77356192	 54.35842891	  0.46270868	 -0.00600000	  0.08581172	  0.00000000	  0.00000000	  0.00000000	 -0.30000000	 -0.00600000	  0.20000000	 -8.30027411	 21.96922555	  9.00648696	  0.74141449	 -0.00600000	  0.21097065	  0.00000000	 -0.51232178	  0.00000000	  0.00000000	  0.00000000	  0.00000000	  0.00000000	 -1.09263960	  0.00000000
  0.55250000	 59.16963528	838.51208448	 54.37247212	  0.46299279	 -0.00600000	  0.08581824	  0.00000000	  0.00000000	  0.00000000	 -0.30000000	 -0.00600000	  0.20000000	 -7.19775805	 24.85592963	  9.72252146	  0.74686095	 -0.00600000	  0.21291970	  0.00000000	 -0.52216187	  0.00000000	  0.00000000	  0.00000000	  0.00000000	  0.00000000	 -1.03709886	  0.00000000
  0.55333333	 59.70490880	838.25683789	 54.39644722	  0.46326558	 -0.00600000	  0.08582417	  0.00000000	  0.00000000	  0.00000000	 -0.30000000	 -0.00600000	  0.20000000	 -5.76232169	 27.93992377	 10.45924826	  0.75188555	 -0.00600000	  0.21462964	  0.00000000	 -0.52652630	  0.00000000	  0.00000000	  0.00000000	  0.00000000	  0.00000000	 -0.97497288	  0.00000000
  0.55416667	 60.25806613	838.00238167	 54.42418137	  0.46353242	 -0.00600000	  0.08582754	  0.00000000	  0.00000000	  0.00000000	 -0.30000000	 -0.00600000	  0.20000000	 -4.02378231	 31.22896277	 11.23182692	  0.75651451	 -0.00600000	  0.21611857	  0.00000000	 -0.52477115	  0.00000000	  0.00000000	  0.00000000	  0.00000000	  0.00000000	 -0.91028232	  0.00000000
  0.55500000	 60.83085022	837.74317400	 54.44782847	  0.46379786	 -0.00600000	  0.08582756	  0.00000000	  0.00000000	  0.00000000	 -0.30000000	 -0.00600000	  0.20000000	 -2.02216877	 34.72361258	 12.05293812	  0.76076181	 -0.00600000	  0.21741750	  0.00000000	 -0.51710503	  0.00000000	  0.00000000	  0.00000000	  0.00000000	  0.00000000	 -0.84674461	  0.00000000
  0.55583333	 61.42486067	837.47616580	 54.46110509	  0.46406429	 -0.00600000	  0.08582461	  0.00000000	  0.00000000	  0.00000000	 -0.30000000	 -0.00600000	  0.20000000	  0.19564883	 38.41684660	 12.93073033	  0.76462693	 -0.00600000	  0.21856521	  0.00000000	 -0.50433550	  0.00000000	  0.00000000	  0.00000000	  0.00000000	  0.00000000	 -0.78774043	  0.00000000
  0.55666667	 62.04042366	837.20203072	 54.46009875	  0.46433115	 -0.00600000	  0.08581942	  0.00000000	  0.00000000	  0.00000000	 -0.30000000	 -0.00600000	  0.20000000	  2.57910350	 42.29473126	 13.86767786	  0.76810785	 -0.00600000	  0.21960361	  0.00000000	 -0.48789014	  0.00000000	  0.00000000	  0.00000000	  0.00000000	  0.00000000	 -0.73590993	  0.00000000
  0.55750000	 62.67608224	836.92228755	 54.44273049	  0.46459593	 -0.00600000	  0.08581237	  0.00000000	  0.00000000	  0.00000000	 -0.30000000	 -0.00600000	  0.20000000	  5.07637308	 46.33872301	 14.86095069	  0.77121468	 -0.00600000	  0.22056982	  0.00000000	 -0.46954285	  0.00000000	  0.00000000	  0.00000000	  0.00000000	  0.00000000	 -0.69290730	  0.00000000
